<?xml version="1.0" encoding="UTF-8" standalone="no"?>
<!-- Created with Inkscape (http://www.inkscape.org/) -->

<svg
   width="424"
   height="304"
   viewBox="0 0 112.18332 80.433333"
   version="1.1"
   id="svg1"
   sodipodi:docname="andrea0s-plain-noextfonts.svg"
   inkscape:version="1.3 (0e150ed6c4, 2023-07-21)"
   xmlns:inkscape="http://www.inkscape.org/namespaces/inkscape"
   xmlns:sodipodi="http://sodipodi.sourceforge.net/DTD/sodipodi-0.dtd"
   xmlns="http://www.w3.org/2000/svg"
   xmlns:svg="http://www.w3.org/2000/svg">
  <sodipodi:namedview
     id="namedview1"
     pagecolor="#ffffff"
     bordercolor="#666666"
     borderopacity="1.0"
     inkscape:showpageshadow="2"
     inkscape:pageopacity="0.0"
     inkscape:pagecheckerboard="0"
     inkscape:deskcolor="#d1d1d1"
     inkscape:document-units="px"
     inkscape:zoom="2.8284271"
     inkscape:cx="185.0852"
     inkscape:cy="193.21693"
     inkscape:window-width="1916"
     inkscape:window-height="1996"
     inkscape:window-x="0"
     inkscape:window-y="1242"
     inkscape:window-maximized="1"
     inkscape:current-layer="layer1" />
  <defs
     id="defs1" />
  <g
     inkscape:label="Layer 1"
     inkscape:groupmode="layer"
     id="layer1">
    <rect
       style="fill:#dedddf;fill-opacity:1;fill-rule:evenodd;stroke:#000000;stroke-width:0.529167;stroke-linecap:round;stroke-linejoin:miter;stroke-dasharray:none;paint-order:markers stroke fill"
       id="rect1"
       width="111.65417"
       height="79.904167"
       x="0.2645835"
       y="0.2645835"
       inkscape:label="rect1" />
    <rect
       style="fill:#ffffff;fill-opacity:1;fill-rule:evenodd;stroke:#000000;stroke-width:0.410235;stroke-linecap:round;stroke-linejoin:miter;stroke-dasharray:none;paint-order:markers stroke fill"
       id="rect2"
       width="91.929344"
       height="58.327263"
       x="9.7301159"
       y="7.613451"
       inkscape:label="rect1" />
    <path
       style="color:#000000;font-style:normal;font-variant:normal;font-weight:normal;font-stretch:normal;font-size:medium;line-height:normal;font-family:sans-serif;font-variant-ligatures:normal;font-variant-position:normal;font-variant-caps:normal;font-variant-numeric:normal;font-variant-alternates:normal;font-feature-settings:normal;text-indent:0;text-align:start;text-decoration:none;text-decoration-line:none;text-decoration-style:solid;text-decoration-color:#000000;letter-spacing:normal;word-spacing:normal;text-transform:none;writing-mode:lr-tb;direction:ltr;text-orientation:mixed;dominant-baseline:auto;baseline-shift:baseline;text-anchor:start;white-space:normal;shape-padding:0;clip-rule:nonzero;display:inline;overflow:visible;visibility:visible;isolation:auto;mix-blend-mode:normal;color-interpolation:sRGB;color-interpolation-filters:linearRGB;solid-color:#000000;solid-opacity:1;vector-effect:none;fill:#ffffff;fill-opacity:1;fill-rule:nonzero;stroke:#000000;stroke-width:0.73765;stroke-linecap:butt;stroke-linejoin:miter;stroke-miterlimit:10;stroke-dasharray:none;stroke-dashoffset:0;stroke-opacity:1;color-rendering:auto;image-rendering:auto;shape-rendering:auto;text-rendering:auto;enable-background:accumulate"
       d="m 41.114657,11.481325 v 6.706063 h 2.954996 V 16.52602 l 1.016729,1.016719 -1.566188,1.566198 2.089697,2.089697 1.566188,-1.566188 0.761499,0.761499 c -1.030148,1.449818 -1.652717,3.213876 -1.652717,5.118243 0,4.367524 3.212285,7.997759 7.38533,8.709238 v 1.998838 h -4.062585 v 2.950666 h 4.062585 v 3.322745 h 2.950666 V 39.17093 h 4.062574 v -2.950666 h -4.062574 v -1.998838 c 4.173044,-0.711499 7.38533,-4.341714 7.38533,-8.709238 0,-1.904367 -0.622599,-3.668425 -1.652728,-5.118243 l 3.867885,-3.867885 v 2.543977 h 2.954996 v -7.588672 h -7.58866 v 2.954998 h 2.543967 l -3.867875,3.867885 c -1.449828,-1.030149 -3.213876,-1.652718 -5.118243,-1.652718 -1.904378,0 -3.668425,0.622599 -5.118254,1.652718 l -0.761498,-0.761499 1.566197,-1.566178 -2.089707,-2.089697 -1.566188,1.566178 -1.016728,-1.016719 h 1.661377 v -2.954998 z m 14.030832,8.125161 c 1.636207,0 3.103205,0.658699 4.175054,1.730598 1.071869,1.071848 1.730608,2.538856 1.730608,4.175064 0,3.272426 -2.633247,5.905662 -5.905662,5.905662 -3.272436,0 -5.905672,-2.633236 -5.905672,-5.905662 0,-1.636208 0.658699,-3.103216 1.730597,-4.175064 1.071859,-1.071859 2.538857,-1.730598 4.175075,-1.730598 z"
       id="path2" />
    <g
       id="text2"
       style="font-stretch:semi-condensed;font-size:18.4332px;line-height:1.25;font-family:'DejaVu Serif';-inkscape-font-specification:'DejaVu Serif Semi-Condensed';letter-spacing:-0.293863px;word-spacing:0px;stroke-width:0.267148"
       transform="matrix(0.99848788,0,0,1.0015144,0.264583,0.26458294)"
       aria-label="Andrea OS">
      <path
         d="m 17.199392,54.575099 h 4.437289 l -2.214144,-6.390416 z m -3.420223,4.869317 v -0.954062 h 1.062069 l 4.311281,-12.483813 h 1.359089 l 4.320281,12.483813 h 1.188078 v 0.954062 H 21.61868 v -0.954062 h 1.350088 L 21.951701,55.538162 H 16.86637 l -1.008065,2.952192 h 1.323086 v 0.954062 z m 12.459967,0 v -0.954062 h 1.341088 v -7.650499 h -1.422093 v -0.963062 h 2.91619 v 1.701111 q 0.405027,-0.972064 1.062069,-1.467096 0.666044,-0.495032 1.539101,-0.495032 1.431093,0 2.097136,0.909059 0.675044,0.909059 0.675044,2.835185 v 5.130334 h 1.332087 v 0.954062 H 31.66649 v -0.954062 h 1.287084 v -4.6083 q 0,-1.755115 -0.396026,-2.403157 -0.387025,-0.657043 -1.368089,-0.657043 -1.035068,0 -1.575103,0.846055 -0.540035,0.837055 -0.540035,2.44816 v 4.374285 h 1.296085 v 0.954062 z m 18.418357,-0.954062 h 1.422093 v 0.954062 h -2.91619 v -1.494097 q -0.441029,0.900058 -1.116073,1.332086 -0.675044,0.423028 -1.674109,0.423028 -1.584103,0 -2.592169,-1.395091 -1.008066,-1.404091 -1.008066,-3.654238 0,-2.250146 0.999065,-3.645237 1.008066,-1.395091 2.60117,-1.395091 0.999065,0 1.674109,0.432028 0.675044,0.423027 1.116073,1.323086 v -4.977324 h -1.413092 v -0.954062 h 2.907189 z m -1.494097,-3.357219 v -0.945061 q 0,-1.719112 -0.594039,-2.628172 -0.594039,-0.909059 -1.728113,-0.909059 -1.152075,0 -1.746113,1.008066 -0.585039,1.008066 -0.585039,2.997195 0,1.980129 0.585039,2.997195 0.594038,1.017067 1.746113,1.017067 1.134074,0 1.728113,-0.900059 0.594039,-0.909059 0.594039,-2.637172 z m 11.028873,-5.274343 v 2.394156 h -0.855056 q -0.045,-0.711047 -0.360023,-1.06207 -0.315021,-0.351023 -0.91806,-0.351023 -1.107072,0 -1.69211,0.846056 -0.585038,0.846055 -0.585038,2.430158 v 4.374285 h 1.719112 v 0.954062 h -4.554297 v -0.954062 h 1.341087 v -7.6685 h -1.422092 v -0.945061 h 2.91619 v 1.701111 q 0.432028,-0.999066 1.116073,-1.476097 0.693045,-0.486031 1.683109,-0.486031 0.360024,0 0.76505,0.063 0.405026,0.063 0.846055,0.180012 z m 8.697724,4.977324 h -6.426419 v 0.07201 q 0,1.935126 0.657043,2.92519 0.657043,0.981064 1.935126,0.981064 0.981064,0 1.611105,-0.567037 0.630041,-0.576037 0.882057,-1.701111 h 1.197078 q -0.360023,1.575103 -1.323086,2.367154 -0.954062,0.792052 -2.520164,0.792052 -1.890123,0 -3.033198,-1.37709 -1.143074,-1.38609 -1.143074,-3.672239 0,-2.268148 1.125073,-3.654238 1.125074,-1.38609 2.952193,-1.38609 1.953127,0 2.997195,1.341087 1.044068,1.332087 1.089071,3.879253 z m -1.755115,-0.954062 q -0.054,-1.674109 -0.639041,-2.520164 -0.585038,-0.855056 -1.69211,-0.855056 -1.026067,0 -1.620106,0.855056 -0.585038,0.855055 -0.720047,2.520164 z m 8.886736,2.556166 v -2.025132 h -1.926125 q -1.107072,0 -1.656108,0.531035 -0.540035,0.531034 -0.540035,1.629106 0,0.999065 0.549036,1.584103 0.558036,0.585038 1.494097,0.585038 0.936061,0 1.503098,-0.639041 0.576037,-0.639042 0.576037,-1.665109 z m 1.485097,-2.970193 v 5.022327 h 1.332087 v 0.954062 h -2.817184 v -1.035067 q -0.495032,0.666043 -1.143074,0.981064 -0.648042,0.31502 -1.521099,0.31502 -1.431093,0 -2.277149,-0.846055 -0.837054,-0.846055 -0.837054,-2.286149 0,-1.485097 0.963063,-2.30415 0.963062,-0.819053 2.718177,-0.819053 h 2.097136 v -0.657043 q 0,-1.089071 -0.603039,-1.68311 -0.594039,-0.603039 -1.665108,-0.603039 -0.900059,0 -1.422093,0.450029 -0.522034,0.450029 -0.657043,1.332087 h -0.76505 v -1.935126 q 0.774051,-0.369024 1.503098,-0.549036 0.738048,-0.189012 1.431094,-0.189012 1.791116,0 2.727177,0.990064 0.936061,0.981064 0.936061,2.862187 z"
         id="path12" />
      <path
         style="letter-spacing:-1.43993px"
         d="m 83.06596,58.74237 q 1.980129,0 2.997195,-1.512098 1.017066,-1.521099 1.017066,-4.491293 0,-2.979194 -1.017066,-4.491292 -1.017066,-1.521099 -2.997195,-1.521099 -1.98913,0 -3.006196,1.521099 -1.008066,1.512098 -1.008066,4.491292 0,2.970194 1.008066,4.491293 1.017066,1.512098 3.006196,1.512098 z m 0,0.963063 q -1.23308,0 -2.268148,-0.450029 -1.026067,-0.45003 -1.818118,-1.323086 -0.900059,-1.008066 -1.341088,-2.286149 -0.441028,-1.278084 -0.441028,-2.90719 0,-1.629106 0.441028,-2.907189 0.441029,-1.287084 1.341088,-2.29515 0.801052,-0.882057 1.818118,-1.323086 1.017066,-0.450029 2.268148,-0.450029 2.628171,0 4.248277,1.917125 1.620105,1.917125 1.620105,5.058329 0,1.611105 -0.441029,2.90719 -0.441028,1.287083 -1.350088,2.286149 -0.801052,0.882057 -1.818118,1.332086 -1.017066,0.441029 -2.259147,0.441029 z m 6.894615,-0.909059 v -3.0602 l 0.92706,0.009 q 0.045,1.5301 0.801052,2.268148 0.75605,0.729047 2.30415,0.729047 1.440094,0 2.196143,-0.630041 0.76505,-0.639041 0.76505,-1.854121 0,-0.972063 -0.45903,-1.494097 -0.459029,-0.522034 -1.935126,-1.017066 L 92.966771,53.21601 q -1.737114,-0.585038 -2.44816,-1.458095 -0.702046,-0.873057 -0.702046,-2.394156 0,-1.710111 1.089071,-2.655173 1.098072,-0.945061 3.0692,-0.945061 0.846055,0 1.84512,0.207013 1.008066,0.198013 2.14214,0.585038 v 2.862187 h -0.91806 q -0.135009,-1.422093 -0.855056,-2.052134 -0.711046,-0.639041 -2.178141,-0.639041 -1.278084,0 -1.953128,0.585038 -0.666043,0.576037 -0.666043,1.683109 0,0.963063 0.504033,1.512099 0.504033,0.549036 2.133139,1.089071 l 1.494097,0.495032 q 1.647107,0.549036 2.349153,1.404091 0.702046,0.846056 0.702046,2.277149 0,1.953127 -1.125073,2.943192 -1.125074,0.990064 -3.357219,0.990064 -0.999065,0 -2.034133,-0.225015 -1.026067,-0.225014 -2.097136,-0.684044 z"
         id="path13" />
    </g>
    <rect
       style="fill:#ffffff;fill-opacity:1;fill-rule:evenodd;stroke:none;stroke-width:0.529925;stroke-linecap:round;stroke-linejoin:miter;stroke-dasharray:none;paint-order:markers stroke fill"
       id="rect4"
       width="92.604164"
       height="0.26458332"
       x="9.5249987"
       y="66.145805" />
    <rect
       style="fill:#ffffff;fill-opacity:1;fill-rule:evenodd;stroke:none;stroke-width:0.421092;stroke-linecap:round;stroke-linejoin:miter;stroke-dasharray:none;paint-order:markers stroke fill"
       id="rect5"
       width="0.26458332"
       height="58.472916"
       x="101.86458"
       y="7.6729174" />
    <rect
       style="fill:#aaacac;fill-opacity:1;fill-rule:evenodd;stroke:none;stroke-width:0.529167;stroke-linecap:round;stroke-linejoin:miter;stroke-dasharray:none;paint-order:markers stroke fill"
       id="rect6"
       width="92.339577"
       height="0.26458332"
       x="9.5249987"
       y="7.1437507" />
    <rect
       style="fill:#aaacac;fill-opacity:1;fill-rule:evenodd;stroke:none;stroke-width:0.422993;stroke-linecap:round;stroke-linejoin:miter;stroke-dasharray:none;paint-order:markers stroke fill"
       id="rect7"
       width="0.26458332"
       height="59.002083"
       x="9.260416"
       y="7.1437507" />
    <rect
       style="fill:#fffffe;fill-opacity:1;fill-rule:evenodd;stroke:none;stroke-width:0.529796;stroke-linecap:round;stroke-linejoin:miter;stroke-dasharray:none;paint-order:markers stroke fill"
       id="rect8"
       width="111.38958"
       height="0.26458332"
       x="0.26458299"
       y="0.26458302" />
    <rect
       style="fill:#fffffe;fill-opacity:1;fill-rule:evenodd;stroke:none;stroke-width:0.447973;stroke-linecap:round;stroke-linejoin:miter;stroke-dasharray:none;paint-order:markers stroke fill"
       id="rect9"
       width="0.26458332"
       height="79.63958"
       x="0.26458299"
       y="0.52916628" />
    <rect
       style="fill:#aaacac;fill-opacity:1;fill-rule:evenodd;stroke:none;stroke-width:0.529167;stroke-linecap:round;stroke-linejoin:miter;stroke-dasharray:none;paint-order:markers stroke fill"
       id="rect10"
       width="111.125"
       height="0.26458332"
       x="0.52916634"
       y="79.904137" />
    <rect
       style="fill:#aaacac;fill-opacity:1;fill-rule:evenodd;stroke:none;stroke-width:0.447973;stroke-linecap:round;stroke-linejoin:miter;stroke-dasharray:none;paint-order:markers stroke fill"
       id="rect11"
       width="0.26458332"
       height="79.63958"
       x="111.65416"
       y="0.52916628" />
    <rect
       style="fill:#f0f1f0;fill-opacity:1;fill-rule:evenodd;stroke:none;stroke-width:0.534185;stroke-linecap:round;stroke-linejoin:miter;stroke-dasharray:none;paint-order:markers stroke fill"
       id="rect12"
       width="0.26458332"
       height="0.26458332"
       x="111.65416"
       y="0.26458302" />
    <path
       style="font-size:3.45821px;line-height:1.25;font-family:Ebrima;-inkscape-font-specification:Ebrima;letter-spacing:0px;word-spacing:0px;stroke-width:0.266015"
       d="m 40.388975,70.993214 -0.627413,2.469889 h -0.59265 l -0.393996,-1.584587 q -0.03145,-0.124012 -0.03808,-0.277303 h -0.0067 q -0.0149,0.168793 -0.04304,0.277303 l -0.403929,1.584587 h -0.617481 l -0.624057,-2.469889 h 0.584372 l 0.3344,1.644869 q 0.02152,0.105066 0.03145,0.28247 h 0.0099 q 0.0067,-0.132622 0.04801,-0.289359 l 0.430415,-1.63798 h 0.572785 l 0.389029,1.658649 q 0.02152,0.09128 0.03808,0.265246 h 0.0067 q 0.0067,-0.136067 0.03476,-0.27558 l 0.327777,-1.648315 z m 1.772981,1.743046 h -1.105837 q 0.02649,0.38409 0.46518,0.38409 0.279771,0 0.491667,-0.137791 v 0.392702 q -0.235072,0.1309 -0.610859,0.1309 -0.41055,0 -0.637346,-0.235965 -0.226796,-0.237688 -0.226796,-0.661392 0,-0.439206 0.245006,-0.69584 0.245006,-0.256635 0.602582,-0.256635 0.370819,0 0.572784,0.229076 0.203619,0.229076 0.203619,0.621778 z m -0.485044,-0.334142 q 0,-0.378922 -0.29467,-0.378922 -0.125814,0 -0.218519,0.108509 -0.09105,0.10851 -0.110915,0.270413 z m 1.319389,1.060985 H 42.47318 v -2.611124 h 0.523121 z m 1.724974,-0.06373 q -0.177133,0.106787 -0.511533,0.106787 -0.390685,0 -0.63238,-0.246299 -0.241695,-0.2463 -0.241695,-0.635557 0,-0.44954 0.258249,-0.707897 0.259905,-0.260079 0.693632,-0.260079 0.299636,0 0.433727,0.08267 v 0.461597 q -0.16389,-0.127455 -0.365854,-0.127455 -0.22514,0 -0.357576,0.13779 -0.13078,0.136068 -0.13078,0.3772 0,0.234243 0.125814,0.368589 0.125814,0.132622 0.345988,0.132622 0.195342,0 0.382408,-0.127456 z m 1.150533,0.106787 q -0.423793,0 -0.667145,-0.246299 -0.241694,-0.248022 -0.241694,-0.671727 0,-0.437483 0.251628,-0.683783 0.251627,-0.248023 0.680387,-0.248023 0.422139,0 0.662179,0.248023 0.240039,0.2463 0.240039,0.65278 0,0.439206 -0.248317,0.694118 -0.246662,0.254911 -0.677077,0.254911 z m 0.01324,-1.433016 q -0.185409,0 -0.288046,0.132622 -0.102638,0.132624 -0.102638,0.375478 0,0.508101 0.393996,0.508101 0.375785,0 0.375785,-0.521879 0,-0.494322 -0.379097,-0.494322 z m 3.94327,1.389957 h -0.521464 v -1.005867 q 0,-0.38409 -0.271493,-0.38409 -0.129125,0 -0.210242,0.115398 -0.08112,0.1154 -0.08112,0.287637 v 0.986922 h -0.52312 v -1.016202 q 0,-0.373755 -0.266527,-0.373755 -0.134091,0 -0.215208,0.110232 -0.07946,0.110232 -0.07946,0.299693 v 0.980032 h -0.52312 v -1.763713 h 0.52312 v 0.27558 h 0.0067 q 0.08112,-0.141235 0.226795,-0.229076 0.147335,-0.08957 0.321157,-0.08957 0.359231,0 0.491667,0.328974 0.193687,-0.328974 0.569473,-0.328974 0.552918,0 0.552918,0.709619 z m 1.936871,-0.726842 h -1.105837 q 0.02649,0.38409 0.465179,0.38409 0.27977,0 0.491667,-0.137791 v 0.392702 q -0.235073,0.1309 -0.610858,0.1309 -0.410551,0 -0.637347,-0.235965 -0.226795,-0.237688 -0.226795,-0.661392 0,-0.439207 0.245005,-0.69584 0.245006,-0.256635 0.602582,-0.256635 0.37082,0 0.572784,0.229076 0.20362,0.229076 0.20362,0.621778 z m -0.485046,-0.334142 q 0,-0.378922 -0.294669,-0.378922 -0.125814,0 -0.218519,0.108509 -0.09105,0.10851 -0.110914,0.270413 z m 2.756315,1.040316 q -0.115881,0.06373 -0.349299,0.06373 -0.552918,0 -0.552918,-0.597664 v -0.807794 h -0.274804 v -0.401314 h 0.274804 v -0.380646 l 0.521465,-0.155014 v 0.535659 h 0.380752 v 0.401314 h -0.380752 v 0.713064 q 0,0.275579 0.210242,0.275579 0.08277,0 0.17051,-0.04995 z m 1.102527,0.06373 q -0.423793,0 -0.667144,-0.246299 -0.241695,-0.248022 -0.241695,-0.671727 0,-0.437483 0.251628,-0.683783 0.251627,-0.248023 0.680387,-0.248023 0.422139,0 0.662179,0.248023 0.240039,0.2463 0.240039,0.65278 0,0.439206 -0.248317,0.694118 -0.246661,0.254911 -0.677077,0.254911 z m 0.01324,-1.433016 q -0.18541,0 -0.288048,0.132622 -0.102637,0.132624 -0.102637,0.375478 0,0.508101 0.393996,0.508101 0.375785,0 0.375785,-0.521879 0,-0.494322 -0.379096,-0.494322 z m 4.878595,1.389958 h -0.521465 v -1.005868 q 0,-0.38409 -0.271493,-0.38409 -0.129125,0 -0.210241,0.115398 -0.08112,0.1154 -0.08112,0.287638 v 0.986922 h -0.52312 v -1.016203 q 0,-0.373755 -0.266527,-0.373755 -0.134091,0 -0.215207,0.110232 -0.07946,0.110232 -0.07946,0.299693 v 0.980033 h -0.52312 v -1.763714 h 0.52312 v 0.27558 h 0.0067 q 0.08112,-0.141235 0.226796,-0.229076 0.147334,-0.08957 0.321156,-0.08957 0.359232,0 0.491667,0.328974 0.193688,-0.328974 0.569473,-0.328974 0.552919,0 0.552919,0.709619 z m 2.02792,-1.763714 -0.688665,1.904948 q -0.248317,0.687228 -0.748262,0.687228 -0.190375,0 -0.312878,-0.04478 v -0.434043 q 0.104292,0.06373 0.226795,0.06373 0.201965,0 0.281426,-0.198074 l 0.08939,-0.218741 -0.688665,-1.760269 h 0.579406 l 0.316189,1.073041 q 0.0298,0.0999 0.04635,0.235965 h 0.0067 q 0.0149,-0.0999 0.05463,-0.232521 l 0.319501,-1.076485 z m 3.600591,0 -0.488355,1.763714 h -0.549608 l -0.249972,-1.033427 q -0.02483,-0.103342 -0.02815,-0.22563 h -0.0099 q -0.01159,0.134345 -0.03311,0.218741 l -0.268182,1.040316 H 63.489066 L 63.010642,71.69939 h 0.533053 l 0.233418,1.150548 q 0.01656,0.08095 0.02483,0.196351 h 0.0099 q 0.0082,-0.120567 0.02979,-0.203242 l 0.291358,-1.143657 h 0.498289 l 0.26156,1.150548 q 0.0099,0.04305 0.02318,0.199795 h 0.01159 q 0.0082,-0.0999 0.02649,-0.199795 l 0.220174,-1.150548 z m 1.771328,1.036871 h -1.105838 q 0.02649,0.38409 0.46518,0.38409 0.27977,0 0.491667,-0.137791 v 0.392702 q -0.235073,0.1309 -0.610859,0.1309 -0.41055,0 -0.637346,-0.235965 -0.226797,-0.237688 -0.226797,-0.661392 0,-0.439206 0.245007,-0.69584 0.245006,-0.256635 0.602582,-0.256635 0.37082,0 0.572783,0.229076 0.203621,0.229076 0.203621,0.621778 z M 66.945613,72.40212 q 0,-0.378922 -0.294669,-0.378922 -0.125814,0 -0.218519,0.108509 -0.09105,0.10851 -0.110914,0.270413 z m 1.32601,0.856022 h -0.0067 v 0.204963 h -0.523121 v -2.611124 h 0.523121 v 1.112656 h 0.0067 q 0.193688,-0.308306 0.551264,-0.308306 0.327778,0 0.504911,0.234243 0.177131,0.234244 0.177131,0.640725 0,0.440928 -0.20693,0.707897 -0.20693,0.266967 -0.552918,0.266967 -0.31288,0 -0.473458,-0.248021 z m -0.0149,-0.744067 v 0.18085 q 0,0.170515 0.09436,0.28247 0.09436,0.111953 0.241694,0.111953 0.178789,0 0.27646,-0.142957 0.09933,-0.144679 0.09933,-0.408203 0,-0.218742 -0.09105,-0.341031 -0.08939,-0.12401 -0.256594,-0.12401 -0.157267,0 -0.26156,0.122289 -0.102637,0.122288 -0.102637,0.318639 z m 1.476656,0.902525 v -0.440928 q 0.129124,0.08095 0.256594,0.120567 0.129125,0.03962 0.24335,0.03962 0.139057,0 0.218519,-0.03962 0.08112,-0.03962 0.08112,-0.120567 0,-0.05167 -0.03642,-0.08612 -0.03642,-0.03445 -0.09436,-0.06028 -0.05628,-0.02584 -0.124159,-0.0465 -0.06787,-0.02067 -0.13078,-0.0465 -0.100982,-0.03962 -0.178788,-0.0844 -0.07615,-0.0465 -0.129125,-0.106788 -0.05132,-0.06028 -0.07946,-0.139512 -0.02649,-0.07922 -0.02649,-0.187739 0,-0.148125 0.06125,-0.254912 0.06291,-0.106787 0.165545,-0.17396 0.104293,-0.06889 0.236728,-0.0999 0.134091,-0.03272 0.278115,-0.03272 0.112571,0 0.228451,0.01894 0.115882,0.01723 0.228452,0.05167 v 0.420259 q -0.09933,-0.06028 -0.213552,-0.08957 -0.112571,-0.031 -0.22183,-0.031 -0.05132,0 -0.09768,0.01033 -0.04469,0.0086 -0.07946,0.02756 -0.03476,0.01723 -0.05463,0.0465 -0.01986,0.02756 -0.01986,0.06373 0,0.04823 0.02979,0.08267 0.0298,0.03445 0.0778,0.06028 0.04801,0.02411 0.105948,0.04478 0.0596,0.01894 0.117537,0.03962 0.104292,0.03789 0.18872,0.08267 0.08443,0.04478 0.144024,0.105064 0.06125,0.06028 0.0927,0.141236 0.03311,0.08095 0.03311,0.192906 0,0.156735 -0.06621,0.26869 -0.06456,0.110232 -0.173822,0.18085 -0.107603,0.06889 -0.249972,0.0999 -0.140713,0.03272 -0.293014,0.03272 -0.27977,0 -0.518154,-0.08957 z m 1.867343,-1.996234 q -0.132435,0 -0.216863,-0.08095 -0.08443,-0.08267 -0.08443,-0.201518 0,-0.122289 0.08443,-0.199796 0.08443,-0.07751 0.216863,-0.07751 0.134091,0 0.216864,0.07751 0.08443,0.07751 0.08443,0.199796 0,0.124011 -0.08443,0.20324 -0.08277,0.07922 -0.216864,0.07922 z m 0.25825,2.042739 h -0.52312 v -1.763714 h 0.52312 z m 1.465069,-0.02067 q -0.115881,0.06373 -0.349298,0.06373 -0.552919,0 -0.552919,-0.597665 V 72.100699 H 72.14702 v -0.401314 h 0.274804 V 71.31874 l 0.521465,-0.155014 v 0.535659 h 0.380752 v 0.401314 h -0.380752 v 0.713064 q 0,0.275579 0.210241,0.275579 0.08277,0 0.170511,-0.04995 z m 1.817676,-0.706174 H 74.03588 q 0.02649,0.38409 0.46518,0.38409 0.27977,0 0.491667,-0.137791 v 0.392702 q -0.235073,0.130901 -0.610859,0.130901 -0.410551,0 -0.637347,-0.235966 -0.226795,-0.237688 -0.226795,-0.661392 0,-0.439206 0.245005,-0.69584 0.245006,-0.256635 0.602582,-0.256635 0.37082,0 0.572784,0.229076 0.20362,0.229076 0.20362,0.621778 z M 74.65668,72.402122 q 0,-0.378922 -0.294669,-0.378922 -0.125814,0 -0.218518,0.108509 -0.09105,0.10851 -0.110915,0.270413 z"
       id="text12"
       aria-label="Welcome to my website" />
  </g>
</svg>
